<?xml version="1.0" encoding="UTF-8"?>
<svg xmlns="http://www.w3.org/2000/svg" xmlns:xlink="http://www.w3.org/1999/xlink" viewBox="0 0 1600 1600" width="1600px" height="1600px">
<g id="surface120143043">
<path style=" stroke:none;fill-rule:nonzero;fill:rgb(80.000001%,80.000001%,80.000001%);fill-opacity:1;" d="M 1602 334 C 1542.875 360.25 1479.5 377.875 1412.875 385.875 C 1480.875 345.125 1533.125 280.625 1557.625 203.875 C 1494.125 241.5 1423.5 268.875 1348.625 283.625 C 1288.625 219.625 1203.125 179.75 1108.5 179.75 C 926.75 179.75 779.375 327 779.375 508.75 C 779.375 534.5 782.375 559.625 788 583.75 C 514.5 570 272.125 439 109.75 239.875 C 81.375 288.625 65.25 345.125 65.25 405.375 C 65.25 519.5 123.25 620.25 211.625 679.375 C 157.625 677.625 106.875 662.75 62.5 638.125 C 62.5 639.5 62.5 640.875 62.5 642.25 C 62.5 801.75 176 934.625 326.375 965 C 298.875 972.5 269.75 976.5 239.75 976.5 C 218.5 976.5 197.875 974.5 177.75 970.5 C 219.75 1101.125 341.25 1196.5 485.125 1199.125 C 372.625 1287.375 230.75 1339.875 76.5 1339.875 C 49.875 1339.875 23.75 1338.375 -1.875 1335.25 C 143.625 1428.75 316.625 1483.125 502.5 1483.125 C 1107.75 1483.125 1438.75 981.75 1438.75 547 C 1438.75 532.75 1438.375 518.375 1437.875 504.375 C 1502.125 458 1557.875 400 1602 334 Z M 1602 334 "/>
</g>
</svg>
