<?xml version="1.0" encoding="UTF-8"?>
<svg xmlns="http://www.w3.org/2000/svg" xmlns:xlink="http://www.w3.org/1999/xlink" viewBox="0 0 1600 1600" width="1600px" height="1600px">
<g id="surface873054">
<path style=" stroke:none;fill-rule:nonzero;fill:rgb(80.000001%,80.000001%,80.000001%);fill-opacity:1;" d="M 800 64 C 394.175781 64 64 394.175781 64 800 C 64 926.71875 96.734375 1051.328125 158.816406 1161.28125 L 65.183594 1495.359375 C 62.113281 1506.335938 65.089844 1518.113281 73.023438 1526.273438 C 79.136719 1532.574219 87.457031 1536 96 1536 C 98.558594 1536 101.152344 1535.679688 103.679688 1535.070312 L 452.351562 1448.703125 C 558.816406 1505.855469 678.71875 1536 800 1536 C 1205.824219 1536 1536 1205.824219 1536 800 C 1536 394.175781 1205.824219 64 800 64 Z M 1170.238281 1059.710938 C 1154.496094 1103.296875 1078.976562 1143.070312 1042.6875 1148.414062 C 1010.113281 1153.183594 968.894531 1155.230469 923.648438 1141.023438 C 896.222656 1132.382812 861.023438 1120.929688 815.9375 1101.695312 C 626.398438 1020.863281 502.625 832.414062 493.152344 819.96875 C 483.710938 807.519531 416 718.816406 416 627.007812 C 416 535.199219 464.800781 490.046875 482.144531 471.359375 C 499.488281 452.671875 519.9375 448 532.542969 448 C 545.152344 448 557.726562 448.160156 568.769531 448.671875 C 580.382812 449.246094 595.96875 444.289062 611.296875 480.703125 C 627.039062 518.078125 664.832031 609.886719 669.503906 619.265625 C 674.238281 628.609375 677.375 639.519531 671.105469 651.96875 C 664.832031 664.414062 661.695312 672.191406 652.222656 683.105469 C 642.753906 694.015625 632.382812 707.425781 623.871094 715.808594 C 614.398438 725.121094 604.574219 735.199219 615.585938 753.886719 C 626.59375 772.574219 664.511719 833.664062 720.703125 883.136719 C 792.863281 946.6875 853.761719 966.398438 872.640625 975.742188 C 891.519531 985.089844 902.558594 983.519531 913.566406 971.070312 C 924.574219 958.59375 960.800781 916.574219 973.375 897.921875 C 985.953125 879.265625 998.558594 882.335938 1015.902344 888.574219 C 1033.246094 894.785156 1126.144531 939.902344 1145.023438 949.246094 C 1163.902344 958.59375 1176.511719 963.265625 1181.246094 971.039062 C 1185.984375 978.785156 1185.984375 1016.160156 1170.238281 1059.710938 Z M 1170.238281 1059.710938 "/>
</g>
</svg>
