<?xml version="1.0" encoding="UTF-8"?>
<svg xmlns="http://www.w3.org/2000/svg" xmlns:xlink="http://www.w3.org/1999/xlink" viewBox="0 0 1600 1600" width="1600px" height="1600px">
<g id="surface878730">
<path style=" stroke:none;fill-rule:nonzero;fill:rgb(80.000001%,80.000001%,80.000001%);fill-opacity:1;" d="M 1440 1130 C 1426.667969 1200 1370 1253.332031 1300 1263.332031 C 1190 1280 1006.667969 1300 800 1300 C 596.667969 1300 413.332031 1280 300 1263.332031 C 230 1253.332031 173.332031 1200 160 1130 C 146.667969 1053.332031 133.332031 940 133.332031 800 C 133.332031 660 146.667969 546.667969 160 470 C 173.332031 400 230 346.667969 300 336.667969 C 410 320 593.332031 300 800 300 C 1006.667969 300 1186.667969 320 1300 336.667969 C 1370 346.667969 1426.667969 400 1440 470 C 1453.332031 546.667969 1470 660 1470 800 C 1466.667969 940 1453.332031 1053.332031 1440 1130 Z M 1440 1130 "/>
<path style=" stroke:none;fill-rule:nonzero;fill:rgb(20%,20%,20%);fill-opacity:1;" d="M 666.667969 1033.332031 L 666.667969 566.667969 L 1066.667969 800 Z M 666.667969 1033.332031 "/>
</g>
</svg>
