<?xml version="1.0" encoding="UTF-8"?>
<svg xmlns="http://www.w3.org/2000/svg" xmlns:xlink="http://www.w3.org/1999/xlink" viewBox="0 0 1600 1600" width="1600px" height="1600px">
<g id="surface120145513">
<path style=" stroke:none;fill-rule:nonzero;fill:rgb(80.000001%,80.000001%,80.000001%);fill-opacity:1;" d="M 512 96 C 282.558594 96 96 282.558594 96 512 L 96 1088 C 96 1317.441406 282.558594 1504 512 1504 L 1088 1504 C 1317.441406 1504 1504 1317.441406 1504 1088 L 1504 512 C 1504 282.558594 1317.441406 96 1088 96 Z M 1184 352 C 1219.199219 352 1248 380.800781 1248 416 C 1248 451.199219 1219.199219 480 1184 480 C 1148.800781 480 1120 451.199219 1120 416 C 1120 380.800781 1148.800781 352 1184 352 Z M 800 448 C 994.238281 448 1152 605.761719 1152 800 C 1152 994.238281 994.238281 1152 800 1152 C 605.761719 1152 448 994.238281 448 800 C 448 605.761719 605.761719 448 800 448 Z M 800 512 C 641.28125 512 512 641.28125 512 800 C 512 958.71875 641.28125 1088 800 1088 C 958.71875 1088 1088 958.71875 1088 800 C 1088 641.28125 958.71875 512 800 512 Z M 800 512 "/>
</g>
</svg>
