<?xml version="1.0" encoding="UTF-8"?>
<svg xmlns="http://www.w3.org/2000/svg" xmlns:xlink="http://www.w3.org/1999/xlink" viewBox="0 0 1600 1600" width="1600px" height="1600px">
<g id="surface88659378">
<path style=" stroke:none;fill-rule:nonzero;fill:rgb(80.000001%,80.000001%,80.000001%);fill-opacity:1;" d="M 800 96 C 411.199219 96 96 411.199219 96 800 C 96 1152.960938 356 1444.382812 694.785156 1495.296875 L 694.785156 986.59375 L 520.609375 986.59375 L 520.609375 801.535156 L 694.785156 801.535156 L 694.785156 678.398438 C 694.785156 474.527344 794.113281 385.023438 963.550781 385.023438 C 1044.703125 385.023438 1087.617188 391.039062 1107.9375 393.792969 L 1107.9375 555.328125 L 992.351562 555.328125 C 920.414062 555.328125 895.296875 623.519531 895.296875 700.382812 L 895.296875 801.535156 L 1106.113281 801.535156 L 1077.503906 986.59375 L 895.296875 986.59375 L 895.296875 1496.800781 C 1238.910156 1450.175781 1504 1156.382812 1504 800 C 1504 411.199219 1188.800781 96 800 96 Z M 800 96 "/>
</g>
</svg>
